Coordinates
version=1
nRows=24
nColumns=24
inDegrees=yes

Units are S.I. units (second, meters, Newtons, ...)
Angles are in degrees.

endheader
time	pelvis_tilt	pelvis_list	pelvis_rotation	pelvis_tx	pelvis_ty	pelvis_tz	hip_flexion_r	hip_adduction_r	hip_rotation_r	knee_angle_r	ankle_angle_r	subtalar_angle_r	mtp_angle_r	hip_flexion_l	hip_adduction_l	hip_rotation_l	knee_angle_l	ankle_angle_l	subtalar_angle_l	mtp_angle_l	lumbar_extension	lumbar_bending	lumbar_rotation
      4.09000000	     44.53910134	     -3.14534950	     -0.39398987	      0.57116926	      1.08523920	     -0.34040301	     27.90561451	     -8.02240516	     -7.88586863	    -73.34903801	    -28.36574611	    -19.05271437	      0.00000000	     31.53993725	    -13.94634250	     -6.07392961	    -18.47234985	    -40.47370756	      6.52828855	      0.00000000	      0.00000000	      0.00000000	      0.00000000
      4.10000000	     44.54312533	     -3.14939333	     -0.39723047	      0.57117219	      1.08525757	     -0.34037270	     27.90015011	     -8.01678423	     -7.88546131	    -73.34834218	    -28.37069983	    -19.05508301	      0.00000000	     31.53620043	    -13.95396477	     -6.05827599	    -18.47485927	    -40.44744687	      6.55288529	      0.00000000	      0.00000000	      0.00000000	      0.00000000
      4.11000000	     44.54139488	     -3.15554239	     -0.40218728	      0.57118825	      1.08527709	     -0.34036313	     27.89899201	     -8.00835425	     -7.88418975	    -73.34697789	    -28.37558954	    -19.05731219	      0.00000000	     31.53581834	    -13.96419040	     -6.03931491	    -18.47338675	    -40.41094174	      6.58951968	      0.00000000	      0.00000000	      0.00000000	      0.00000000
      4.12000000	     44.53611299	     -3.16276602	     -0.40830415	      0.57121012	      1.08528860	     -0.34037735	     27.90137156	     -7.99848600	     -7.88175303	    -73.34635557	    -28.37954260	    -19.05860250	      0.00000000	     31.53854976	    -13.97558180	     -6.01929953	    -18.46834747	    -40.37054541	      6.63287746	      0.00000000	      0.00000000	      0.00000000	      0.00000000
      4.13000000	     44.52992616	     -3.16966426	     -0.41439804	      0.57122587	      1.08528813	     -0.34039260	     27.90668727	     -7.98905347	     -7.87875450	    -73.34776089	    -28.38139529	    -19.05787126	      0.00000000	     31.54505997	    -13.98613727	     -6.00028876	    -18.46181088	    -40.33271956	      6.67683285	      0.00000000	      0.00000000	      0.00000000	      0.00000000
      4.14000000	     44.52369713	     -3.17465363	     -0.41856075	      0.57123144	      1.08527166	     -0.34039093	     27.91519903	     -7.98222205	     -7.87686876	    -73.35177090	    -28.37991318	    -19.05410521	      0.00000000	     31.55672652	    -13.99373429	     -5.98328998	    -18.45634460	    -40.30244241	      6.71549809	      0.00000000	      0.00000000	      0.00000000	      0.00000000
      4.15000000	     44.51557668	     -3.17666183	     -0.41840835	      0.57123154	      1.08524016	     -0.34037655	     27.92819427	     -7.98036520	     -7.87837083	    -73.35791935	    -28.37412923	    -19.04675282	      0.00000000	     31.57562800	    -13.99623031	     -5.96785204	    -18.45342680	    -40.28205659	      6.74420442	      0.00000000	      0.00000000	      0.00000000	      0.00000000
      4.16000000	     44.50155159	     -3.17552403	     -0.41162860	      0.57123129	      1.08520163	     -0.34036713	     27.94729416	     -7.98569434	     -7.88528517	    -73.36495234	    -28.36375791	    -19.03600223	      0.00000000	     31.60439281	    -13.99157923	     -5.95237019	    -18.45254863	    -40.27105526	      6.76022127	      0.00000000	      0.00000000	      0.00000000	      0.00000000
      4.17000000	     44.47710099	     -3.17159963	     -0.39663078	      0.57123968	      1.08516945	     -0.34037819	     27.97355521	     -7.99943214	     -7.89865507	    -73.37162187	    -28.34952600	    -19.02283740	      0.00000000	     31.64518268	    -13.97848001	     -5.93489653	    -18.45173493	    -40.26685796	      6.76309803	      0.00000000	      0.00000000	      0.00000000	      0.00000000
      4.18000000	     44.43963091	     -3.16526925	     -0.37336054	      0.57127906	      1.08515985	     -0.34041492	     28.00709406	     -8.02094579	     -7.91817463	    -73.37743154	    -28.33322194	    -19.00885905	      0.00000000	     31.69819353	    -13.95721012	     -5.91406728	    -18.44905218	    -40.26617370	      6.75457408	      0.00000000	      0.00000000	      0.00000000	      0.00000000
      4.19000000	     44.39060856	     -3.15697662	     -0.34406172	      0.57136882	      1.08517717	     -0.34046962	     28.04706565	     -8.04755921	     -7.94206603	    -73.38273994	    -28.31732908	    -18.99594716	      0.00000000	     31.76083664	    -13.93006733	     -5.88975376	    -18.44388109	    -40.26629939	      6.73804943	      0.00000000	      0.00000000	      0.00000000	      0.00000000
      4.20000000	     44.33586468	     -3.14774437	     -0.31319850	      0.57148911	      1.08519981	     -0.34052177	     28.09158635	     -8.07534857	     -7.96722119	    -73.38818501	    -28.30429920	    -18.98585771	      0.00000000	     31.82817589	    -13.90103817	     -5.86319744	    -18.43711052	    -40.26584214	      6.71773811	      0.00000000	      0.00000000	      0.00000000	      0.00000000
      4.21000000	     44.28320673	     -3.13927115	     -0.28593287	      0.57158805	      1.08519607	     -0.34055206	     28.13748967	     -8.10036674	     -7.98988981	    -73.39396230	    -28.29579129	    -18.97983023	      0.00000000	     31.89420274	    -13.87468978	     -5.83663065	    -18.43038715	    -40.26473171	      6.69774632	      0.00000000	      0.00000000	      0.00000000	      0.00000000
      4.22000000	     44.23889437	     -3.13314491	     -0.26593355	      0.57163685	      1.08515894	     -0.34056164	     28.18049456	     -8.11960987	     -8.00692739	    -73.39955449	    -28.29225910	    -18.97828654	      0.00000000	     31.95328566	    -13.85475239	     -5.81258427	    -18.42505940	    -40.26371815	      6.68131297	      0.00000000	      0.00000000	      0.00000000	      0.00000000
      4.23000000	     44.20561639	     -3.12996640	     -0.25419655	      0.57165019	      1.08510957	     -0.34057009	     28.21632395	     -8.13147616	     -8.01699651	    -73.40400199	    -28.29300413	    -18.98071478	      0.00000000	     32.00128975	    -13.84293716	     -5.79317084	    -18.42143131	    -40.26371384	      6.67037455	      0.00000000	      0.00000000	      0.00000000	      0.00000000
      4.24000000	     44.18274810	     -3.12945499	     -0.24945390	      0.57165394	      1.08507079	     -0.34058963	     28.24226712	     -8.13593688	     -8.02087637	    -73.40643054	    -28.29655561	    -18.98580305	      0.00000000	     32.03606263	    -13.83841124	     -5.77955880	    -18.41865567	    -40.26530685	      6.66551191	      0.00000000	      0.00000000	      0.00000000	      0.00000000
      4.25000000	     44.16797382	     -3.13116146	     -0.24942548	      0.57165870	      1.08505124	     -0.34060812	     28.25811771	     -8.13454796	     -8.02069136	    -73.40657788	    -28.30117372	    -18.99179535	      0.00000000	     32.05744375	    -13.83839000	     -5.77168339	    -18.41512050	    -40.26859094	      6.66620806	      0.00000000	      0.00000000	      0.00000000	      0.00000000
      4.26000000	     44.15904297	     -3.13434214	     -0.25193492	      0.57166483	      1.08504822	     -0.34060951	     28.26586408	     -8.13004051	     -8.01869206	    -73.40503884	    -28.30532119	    -18.99695184	      0.00000000	     32.06717184	    -13.83999786	     -5.76821055	    -18.40898092	    -40.27325033	      6.67122805	      0.00000000	      0.00000000	      0.00000000	      0.00000000
      4.27000000	     44.15453238	     -3.13751728	     -0.25539570	      0.57167260	      1.08505805	     -0.34059833	     28.26851163	     -8.12540556	     -8.01638708	    -73.40302706	    -28.30801654	    -18.99996726	      0.00000000	     32.06843118	    -13.84191656	     -5.76701088	    -18.39888472	    -40.27872560	      6.67890859	      0.00000000	      0.00000000	      0.00000000	      0.00000000
      4.28000000	     44.15337965	     -3.13913723	     -0.25879772	      0.57168061	      1.08507656	     -0.34058940	     28.26882642	     -8.12275372	     -8.01439948	    -73.40176724	    -28.30900688	    -19.00024383	      0.00000000	     32.06478621	    -13.84414693	     -5.76622282	    -18.38491973	    -40.28433152	      6.68728536	      0.00000000	      0.00000000	      0.00000000	      0.00000000
      4.29000000	     44.15427813	     -3.13865995	     -0.26151543	      0.57168526	      1.08509263	     -0.34059036	     28.26854835	     -8.12254449	     -8.01282509	    -73.40189168	    -28.30871966	    -18.99797979	      0.00000000	     32.05927565	    -13.84669920	     -5.76525834	    -18.36911916	    -40.28933323	      6.69418999	      0.00000000	      0.00000000	      0.00000000	      0.00000000
      4.30000000	     44.15573060	     -3.13696537	     -0.26317763	      0.57168516	      1.08509425	     -0.34059856	     28.26838637	     -8.12372673	     -8.01165746	    -73.40319793	    -28.30798810	    -18.99407435	      0.00000000	     32.05413899	    -13.84879463	     -5.76497233	    -18.35499225	    -40.29306617	      6.69753217	      0.00000000	      0.00000000	      0.00000000	      0.00000000
      4.31000000	     44.15650424	     -3.13578064	     -0.26362221	      0.57168293	      1.08508358	     -0.34060275	     28.26864302	     -8.12471618	     -8.01099506	    -73.40486073	    -28.30762916	    -18.98986733	      0.00000000	     32.05083238	    -13.84932322	     -5.76677136	    -18.34621390	    -40.29513521	      6.69583823	      0.00000000	      0.00000000	      0.00000000	      0.00000000
      4.32000000	     44.15592695	     -3.13626316	     -0.26288904	      0.57168198	      1.08507659	     -0.34059444	     28.26966678	     -8.12447513	     -8.01096553	    -73.40591884	    -28.30808614	    -18.98676639	      0.00000000	     32.05018112	    -13.84816510	     -5.77122003	    -18.34502614	    -40.29558277	      6.68883009	      0.00000000	      0.00000000	      0.00000000	      0.00000000
